<?xml version="1.0"?>
<svg xmlns="http://www.w3.org/2000/svg" xmlns:xlink="http://www.w3.org/1999/xlink" xmlns:svgjs="http://svgjs.com/svgjs" version="1.1" width="512" height="512" x="0" y="0" viewBox="0 0 64 64" style="enable-background:new 0 0 512 512" xml:space="preserve" class=""><g><g xmlns="http://www.w3.org/2000/svg"><g><path d="m23.117 1h-5.117c-3.285 0-6.429 1.497-8.506 4.025-2.52.255-4.494 2.389-4.494 4.975 0 1.463.346 2.928 1 4.236l1.016 2.032c.292-.166.624-.268.984-.268h2v-2c0-.63.296-1.222.8-1.6l3.2-2.4h9l2.414 2.414c.375.375.586.884.586 1.414v2.172h2c.353 0 .68.099.967.26l1.628-4.884c.269-.805.405-1.644.405-2.493 0-4.347-3.536-7.883-7.883-7.883z" fill="#ffffff" data-original="#f0bc5e" style="" class=""/></g><g><path d="m60.071 28h2.929v-8h-2.929c-.62 0-.864-.473-.924-.617-.06-.145-.222-.651.217-1.09l2.071-2.071-5.657-5.657-2.071 2.071c-.439.439-.945.276-1.09.217-.144-.06-.617-.304-.617-.924v-2.929h-8v2.929c0 .62-.473.864-.617.924-.145.059-.651.221-1.09-.217l-2.071-2.071-5.657 5.657 2.071 2.071c.438.438.277.945.217 1.09-.06.144-.304.617-.924.617h-2.929v8h2.929c.62 0 .864.473.924.617.06.145.222.651-.217 1.09l-2.071 2.071 5.657 5.657 2.071-2.071c.439-.439.945-.276 1.09-.217.144.06.617.304.617.924v2.929h8v-2.929c0-.62.473-.864.617-.924s.651-.223 1.09.217l2.071 2.071 5.657-5.657-2.071-2.071c-.438-.438-.277-.945-.217-1.09.06-.144.304-.617.924-.617zm-12.071 4c-4.418 0-8-3.582-8-8s3.582-8 8-8 8 3.582 8 8-3.582 8-8 8z" fill="#ffffff" data-original="#f0bc5e" style="" class=""/></g><g><circle cx="14" cy="16" r="1" fill="#ffffff" data-original="#000000" style="" class=""/><circle cx="22" cy="16" r="1" fill="#ffffff" data-original="#000000" style="" class=""/><path d="m18 23c1.557 0 3.021-.606 4.121-1.707l.586-.586-1.414-1.414-.586.586c-1.446 1.446-3.968 1.446-5.414 0l-.586-.586-1.414 1.414.586.586c1.1 1.101 2.564 1.707 4.121 1.707z" fill="#ffffff" data-original="#000000" style="" class=""/><path d="m18.5 8.379h2v4.243h-2z" transform="matrix(.707 -.707 .707 .707 -1.713 16.864)" fill="#ffffff" data-original="#000000" style="" class=""/><path d="m17 51h2v2h-2z" fill="#ffffff" data-original="#000000" style="" class=""/><path d="m61 41h-14c-1.103 0-2 .897-2 2v2 4h-10v-1.172c0-8.083-5.069-15.464-12.614-18.366-.322-.124-.554-.399-.622-.737l-.471-2.357c2.412-.953 4.311-2.916 5.182-5.367h1.525c1.654 0 3-1.346 3-3s-1.346-3-3-3h-1v-1.171c0-.801-.312-1.555-.879-2.122l-3.414-3.414-1.414 1.414 3.414 3.414c.189.188.293.44.293.707v4.171c0 3.86-3.14 7-7 7s-7-3.14-7-7v-4c0-.313.149-.612.4-.8l2.506-1.879 2.387 2.387 1.414-1.414-3.613-3.614-3.895 2.92c-.751.564-1.199 1.461-1.199 2.4v1h-1c-1.654 0-3 1.346-3 3s1.346 3 3 3h1.525c.871 2.451 2.77 4.414 5.182 5.367l-.471 2.358c-.067.337-.3.613-.622.737-7.545 2.902-12.614 10.283-12.614 18.366v15.172h62v-5-1-14c0-1.103-.897-2-2-2zm-33-24c.551 0 1 .449 1 1s-.449 1-1 1h-1.059c.037-.329.059-.662.059-1v-1zm-20 2c-.551 0-1-.449-1-1s.449-1 1-1h1v1c0 .338.022.671.059 1zm53 34h-11v-2h11zm-13-2v2h-15v-2h13zm-15 4h15v2h-15zm0 4h15v2h-15zm28-10h-11-3v-2h14zm0-6v2h-14v-2zm-39.999 12h-6.001v-6h6.001zm-6.001-8v-2h6v2zm2.802-4-1.257-5.659 1.455-1.091 1.455 1.091-1.257 5.659zm-.753-8.537-2.444 1.833-1.148-4.592c.193-.086.386-.171.583-.251zm4.346 1.833-2.444-1.833 3.01-3.01c.196.08.39.164.583.251zm-3.395-9.296c.463 0 .914-.046 1.358-.114l.446 2.23c.085.426.274.808.518 1.148l-2.322 2.322-2.321-2.321c.243-.34.432-.721.518-1.147l.446-2.231c.443.067.894.113 1.357.113zm-15 20.828c0-6.247 3.376-12.02 8.633-15.173l1.762 7.049 1.394-1.045.965 4.341h-.754c-1.103 0-2 .897-2 2v10c0 1.103.897 2 2 2h6c1.103 0 2-.897 2-2v-10c0-1.103-.897-2-2-2h-.754l.965-4.342 1.394 1.045 1.762-7.049c5.257 3.154 8.633 8.927 8.633 15.174v1.172c-1.103 0-2 .897-2 2v10h-2v-16.586c0-.635.258-1.258.707-1.707l-1.414-1.414c-.834.833-1.293 1.942-1.293 3.121v16.586h-18v-16.586c0-1.179-.459-2.288-1.293-3.121l-1.414 1.414c.449.449.707 1.072.707 1.707v16.586h-4zm58 13.172h-11v-2h11zm-11-4v-2h11v2z" fill="#ffffff" data-original="#000000" style="" class=""/><path d="m43 5h2v2h-2z" fill="#ffffff" data-original="#000000" style="" class=""/><path d="m47 5h2v2h-2z" fill="#ffffff" data-original="#000000" style="" class=""/><path d="m51 5h2v2h-2z" fill="#ffffff" data-original="#000000" style="" class=""/><path d="m48 33c4.962 0 9-4.038 9-9s-4.038-9-9-9-9 4.038-9 9 4.038 9 9 9zm7-9c0 3.519-2.613 6.432-6 6.92v-1.92h2v-3c0-1.654-1.346-3-3-3-.551 0-1-.449-1-1v-1h1c.551 0 1 .449 1 1v1h2v-1c0-1.302-.839-2.402-2-2.816v-2.104c3.387.488 6 3.401 6 6.92zm-8-6.92v1.92h-2v3c0 1.654 1.346 3 3 3 .551 0 1 .449 1 1v1h-1c-.551 0-1-.449-1-1v-1h-2v1c0 1.302.839 2.402 2 2.816v2.104c-3.387-.488-6-3.401-6-6.92s2.613-6.432 6-6.92z" fill="#ffffff" data-original="#000000" style="" class=""/></g></g></g></svg>
