<?xml version="1.0"?>
<svg xmlns="http://www.w3.org/2000/svg" xmlns:xlink="http://www.w3.org/1999/xlink" xmlns:svgjs="http://svgjs.com/svgjs" version="1.1" width="512" height="512" x="0" y="0" viewBox="0 0 513.117 513.117" style="enable-background:new 0 0 512 512" xml:space="preserve" class=""><g><g xmlns="http://www.w3.org/2000/svg"><g><g><g><path d="m492.037 70.308c6.948 0 12.58-5.632 12.58-12.58v-12.465c0-6.948-5.632-12.58-12.58-12.58h-471.957c-6.948 0-12.58 5.633-12.58 12.58v12.465c0 6.948 5.632 12.58 12.58 12.58z" fill="#ffffff" data-original="#f6e2c4" style="" class=""/></g><g fill="#f7d8a4"><path d="m63.909 91.303h-15.435c-5.603 0-10.145-4.542-10.145-10.145v-59.326c0-5.603 4.542-10.145 10.145-10.145h15.435c5.603 0 10.145 4.542 10.145 10.145v59.326c0 5.603-4.543 10.145-10.145 10.145z" fill="#ffffff" data-original="#f7d8a4" style="" class=""/><path d="m448.209 91.303h15.435c5.603 0 10.145-4.542 10.145-10.145v-59.326c0-5.603-4.542-10.145-10.145-10.145h-15.435c-5.603 0-10.145 4.542-10.145 10.145v59.326c0 5.603 4.542 10.145 10.145 10.145z" fill="#ffffff" data-original="#f7d8a4" style="" class=""/><path d="m256.059 84.563c-8.184 0-14.819-6.635-14.819-14.819v-36.497c0-8.184 6.635-14.819 14.819-14.819 8.184 0 14.819 6.635 14.819 14.819v36.497c0 8.184-6.635 14.819-14.819 14.819z" fill="#ffffff" data-original="#f7d8a4" style="" class=""/><path d="m315.335 84.563c-8.184 0-14.819-6.635-14.819-14.819v-36.497c0-8.184 6.635-14.819 14.819-14.819 8.184 0 14.819 6.635 14.819 14.819v36.497c0 8.184-6.635 14.819-14.819 14.819z" fill="#ffffff" data-original="#f7d8a4" style="" class=""/></g><path d="m344.973 84.563c-8.184 0-14.819-6.635-14.819-14.819v-36.497c0-8.184 6.635-14.819 14.819-14.819 8.184 0 14.819 6.635 14.819 14.819v36.497c0 8.184-6.635 14.819-14.819 14.819z" fill="#ffffff" data-original="#f6e2c4" style="" class=""/><g fill="#f7d8a4"><path d="m389.43 33.247c0-8.185-6.635-14.819-14.819-14.819-8.184 0-14.819 6.635-14.819 14.819v268.242h29.638z" fill="#ffffff" data-original="#f7d8a4" style="" class=""/><path d="m152.325 33.247c0-8.185-6.635-14.819-14.819-14.819-8.185 0-14.819 6.635-14.819 14.819v243.463h29.638z" fill="#ffffff" data-original="#f7d8a4" style="" class=""/></g><path d="m167.144 84.563c-8.184 0-14.819-6.635-14.819-14.819v-36.497c0-8.184 6.635-14.819 14.819-14.819 8.184 0 14.819 6.635 14.819 14.819v36.497c0 8.184-6.634 14.819-14.819 14.819z" fill="#ffffff" data-original="#f6e2c4" style="" class=""/><path d="m196.782 84.563c-8.184 0-14.819-6.635-14.819-14.819v-36.497c0-8.184 6.635-14.819 14.819-14.819 8.184 0 14.819 6.635 14.819 14.819v36.497c0 8.184-6.634 14.819-14.819 14.819z" fill="#ffffff" data-original="#f7d8a4" style="" class=""/><path d="m226.421 84.563c-8.184 0-14.819-6.635-14.819-14.819v-36.497c0-8.184 6.635-14.819 14.819-14.819 8.184 0 14.819 6.635 14.819 14.819v36.497c0 8.184-6.635 14.819-14.819 14.819z" fill="#ffffff" data-original="#f6e2c4" style="" class=""/><path d="m377.176 206.759 50.506 74.309c4.685 6.893 12.479 11.019 20.813 11.019h31.957c13.898 0 25.165 11.267 25.165 25.165v159.011c0 13.898-11.267 25.165-25.165 25.165h-447.787c-13.898 0-25.165-11.267-25.165-25.165v-159.01c0-13.898 11.267-25.165 25.165-25.165h31.957c8.334 0 16.128-4.126 20.813-11.019l50.506-74.309c4.685-6.893 12.479-11.019 20.813-11.019h199.609c8.334-.001 16.128 4.125 20.813 11.018z" fill="#ffffff" data-original="#dfae91" style="" class=""/><path d="m498.699 459.091h-406.907c-14.092 0-25.516-11.424-25.516-25.516v-66.156c0-24.596 19.939-44.535 44.535-44.535 16.208 0 31.366-8.025 40.477-21.43l43.43-63.899c4.685-6.893 12.479-11.02 20.813-11.02h175.087l-13.441-19.776c-4.685-6.893-12.479-11.019-20.813-11.019h-199.61c-8.334 0-16.128 4.126-20.813 11.019l-50.505 74.309c-4.685 6.893-12.479 11.02-20.813 11.02h-31.958c-13.899 0-25.166 11.267-25.166 25.166v159.011c0 13.899 11.267 25.166 25.166 25.166h447.787c13.899 0 25.166-11.267 25.166-25.166v-18.145c-2.199.628-4.518.971-6.919.971z" fill="#fdfdfd" data-original="#d79c7a" style="" class=""/><circle cx="453.891" cy="401.272" fill="#f8f7f8" r="15.341" data-original="#f8f7f8" style="" class=""/><circle cx="59.226" cy="401.272" fill="#f8f7f8" r="15.341" data-original="#f8f7f8" style="" class=""/><path d="m258.094 245.169 5.615 11.377c.331.67.97 1.134 1.709 1.242l12.555 1.824c1.862.271 2.605 2.558 1.258 3.871l-9.085 8.856c-.535.521-.779 1.273-.653 2.009l2.145 12.504c.318 1.854-1.628 3.268-3.293 2.393l-11.23-5.904c-.661-.348-1.451-.348-2.112 0l-11.23 5.904c-1.665.875-3.611-.539-3.293-2.393l2.145-12.504c.126-.736-.118-1.488-.653-2.009l-9.085-8.856c-1.347-1.313-.604-3.601 1.258-3.871l12.555-1.824c.739-.107 1.378-.572 1.709-1.242l5.615-11.377c.832-1.687 3.237-1.687 4.07 0z" fill="#ffffff" data-original="#fbe88c" style="" class=""/><path d="m337.967 245.169 5.615 11.377c.331.67.97 1.134 1.709 1.242l12.555 1.824c1.862.271 2.605 2.558 1.258 3.871l-9.085 8.856c-.535.521-.779 1.273-.653 2.009l2.145 12.504c.318 1.854-1.628 3.268-3.293 2.393l-11.23-5.904c-.661-.348-1.451-.348-2.112 0l-11.23 5.904c-1.665.875-3.611-.539-3.293-2.393l2.145-12.504c.126-.736-.118-1.488-.653-2.009l-9.085-8.856c-1.347-1.313-.604-3.601 1.258-3.871l12.555-1.824c.739-.107 1.378-.572 1.709-1.242l5.615-11.377c.832-1.687 3.238-1.687 4.07 0z" fill="#ffffff" data-original="#fbe88c" style="" class=""/><path d="m175.15 245.169-5.615 11.377c-.331.67-.97 1.134-1.709 1.242l-12.555 1.824c-1.862.271-2.605 2.558-1.258 3.871l9.085 8.856c.535.521.779 1.273.653 2.009l-2.145 12.504c-.318 1.854 1.628 3.268 3.293 2.393l11.23-5.904c.661-.348 1.451-.348 2.112 0l11.23 5.904c1.665.875 3.611-.539 3.293-2.393l-2.145-12.504c-.126-.736.118-1.488.653-2.009l9.085-8.856c1.347-1.313.604-3.601-1.258-3.871l-12.555-1.824c-.739-.107-1.378-.572-1.709-1.242l-5.615-11.377c-.832-1.687-3.238-1.687-4.07 0z" fill="#ffffff" data-original="#fbe88c" style="" class=""/></g><path d="m285.697 84.563c-8.184 0-14.819-6.635-14.819-14.819v-36.497c0-8.184 6.635-14.819 14.819-14.819 8.184 0 14.819 6.635 14.819 14.819v36.497c0 8.184-6.635 14.819-14.819 14.819z" fill="#ffffff" data-original="#f6e2c4" style="" class=""/></g><g><path d="m505.617 424.112c4.143 0 7.5-3.357 7.5-7.5v-99.359c0-18.012-14.653-32.665-32.665-32.665h-31.957c-5.856 0-11.318-2.892-14.61-7.735l-36.955-54.373v-77.56c0-4.143-3.357-7.5-7.5-7.5s-7.5 3.357-7.5 7.5v55.669c-3.841-4.837-8.928-8.428-14.638-10.455v-120.39-36.497c0-4.035 3.283-7.318 7.319-7.318 3.892 0 7.075 3.056 7.297 6.894.001.044.021 80.136.021 80.136 0 4.143 3.357 7.5 7.5 7.5s7.5-3.357 7.5-7.5v-35.151h33.634v3.351c0 9.729 7.916 17.645 17.646 17.645h15.435c9.729 0 17.646-7.915 17.646-17.645v-3.351h10.748c11.072 0 20.08-9.008 20.08-20.08v-12.466c0-11.072-9.008-20.08-20.08-20.08h-10.748v-3.35c0-9.729-7.916-17.646-17.646-17.646h-15.435c-9.729 0-17.646 7.916-17.646 17.646v3.35h-35.147c-3.241-8.331-11.341-14.254-20.805-14.254-5.683 0-10.875 2.139-14.819 5.649-3.945-3.51-9.136-5.649-14.819-5.649s-10.874 2.138-14.819 5.649c-3.945-3.51-9.136-5.649-14.819-5.649s-10.875 2.139-14.819 5.649c-3.945-3.51-9.136-5.649-14.819-5.649s-10.874 2.138-14.819 5.649c-3.945-3.51-9.136-5.649-14.819-5.649s-10.875 2.138-14.819 5.649c-3.944-3.51-9.135-5.649-14.819-5.649s-10.875 2.139-14.819 5.649c-3.945-3.51-9.136-5.649-14.819-5.649s-10.875 2.138-14.819 5.649c-3.944-3.51-9.135-5.649-14.819-5.649s-10.875 2.139-14.819 5.649c-3.945-3.51-9.136-5.649-14.819-5.649-9.463 0-17.564 5.923-20.804 14.254h-35.149v-3.35c0-9.729-7.916-17.646-17.646-17.646h-15.434c-9.729 0-17.646 7.916-17.646 17.646v3.35h-10.748c-11.072 0-20.08 9.008-20.08 20.08v12.466c0 11.072 9.008 20.08 20.08 20.08h10.748v3.351c0 9.729 7.916 17.645 17.646 17.645h15.435c9.729 0 17.646-7.915 17.646-17.645v-3.351h33.634v146.143l-35.955 52.901c-3.292 4.844-8.754 7.735-14.61 7.735h-31.959c-18.012 0-32.665 14.654-32.665 32.665v159.012c0 18.012 14.653 32.666 32.665 32.666h447.787c18.012 0 32.665-14.654 32.665-32.666v-27.689c0-4.143-3.357-7.5-7.5-7.5s-7.5 3.357-7.5 7.5v27.689c0 9.741-7.925 17.666-17.665 17.666h-447.787c-9.74 0-17.665-7.925-17.665-17.666v-159.012c0-9.74 7.925-17.665 17.665-17.665h31.957c10.829 0 20.929-5.347 27.017-14.304l37.254-54.812c.008-.012.016-.024.025-.036l13.227-19.461c3.291-4.843 8.753-7.734 14.609-7.734h28.31c4.143 0 7.5-3.357 7.5-7.5s-3.357-7.5-7.5-7.5h-25.238v-97.416c2.295.799 4.756 1.239 7.319 1.239 5.683 0 10.874-2.139 14.819-5.649 3.945 3.51 9.136 5.649 14.819 5.649s10.875-2.139 14.819-5.649c3.945 3.511 9.136 5.649 14.819 5.649s10.874-2.139 14.819-5.649c3.945 3.51 9.136 5.649 14.819 5.649s10.875-2.139 14.819-5.649c3.944 3.51 9.135 5.649 14.819 5.649s10.875-2.139 14.819-5.649c3.945 3.511 9.136 5.649 14.819 5.649s10.875-2.139 14.819-5.649c3.944 3.51 9.135 5.649 14.819 5.649 2.563 0 5.025-.44 7.319-1.239v97.416h-135.266c-4.143 0-7.5 3.357-7.5 7.5s3.357 7.5 7.5 7.5h139.337c5.856 0 11.318 2.892 14.609 7.734l12.229 17.993c.007.01.013.019.02.029l38.257 56.288c6.088 8.957 16.188 14.304 27.017 14.304h31.957c9.74 0 17.665 7.925 17.665 17.665v99.359c0 4.142 3.358 7.5 7.5 7.5zm-13.58-383.93c2.801 0 5.08 2.279 5.08 5.08v12.466c0 2.801-2.279 5.08-5.08 5.08h-10.748v-22.626zm-46.474-18.349c0-1.459 1.187-2.646 2.646-2.646h15.435c1.459 0 2.646 1.187 2.646 2.646v59.326c0 1.458-1.187 2.645-2.646 2.645h-15.435c-1.459 0-2.646-1.187-2.646-2.645zm-15 40.975h-33.633v-22.626h33.634v22.626zm-410.483 0c-2.801 0-5.08-2.279-5.08-5.08v-12.466c0-2.801 2.279-5.08 5.08-5.08h10.748v22.626zm46.474 18.351c0 1.458-1.187 2.645-2.646 2.645h-15.434c-1.459 0-2.646-1.187-2.646-2.645v-59.326c0-1.459 1.187-2.646 2.646-2.646h15.435c1.459 0 2.646 1.187 2.646 2.646v59.326zm15-18.351v-22.626h33.634v22.626zm48.634 139.115s.018-168.826.023-168.971c.001-.044-.003-.087-.002-.131.222-3.837 3.405-6.894 7.297-6.894 4.036 0 7.319 3.283 7.319 7.318v36.497 120.755c-5.81 2.28-10.913 6.212-14.637 11.426zm36.957-124.86c-4.036 0-7.319-3.283-7.319-7.319v-36.497c0-4.035 3.283-7.318 7.319-7.318 4.035 0 7.318 3.283 7.318 7.318v36.497c0 4.036-3.283 7.319-7.318 7.319zm29.637 0c-4.036 0-7.319-3.283-7.319-7.319v-36.497c0-4.035 3.283-7.318 7.319-7.318s7.319 3.283 7.319 7.318v36.497c.001 4.036-3.283 7.319-7.319 7.319zm29.639 0c-4.036 0-7.319-3.283-7.319-7.319v-36.497c0-4.035 3.283-7.318 7.319-7.318 4.035 0 7.318 3.283 7.318 7.318v36.497c0 4.036-3.283 7.319-7.318 7.319zm29.638 0c-4.036 0-7.319-3.283-7.319-7.319v-36.497c0-4.035 3.283-7.318 7.319-7.318s7.319 3.283 7.319 7.318v36.497c0 4.036-3.283 7.319-7.319 7.319zm29.637 0c-4.035 0-7.318-3.283-7.318-7.319v-36.497c0-4.035 3.283-7.318 7.318-7.318 4.036 0 7.319 3.283 7.319 7.318v36.497c.001 4.036-3.283 7.319-7.319 7.319zm29.639 0c-4.036 0-7.319-3.283-7.319-7.319v-36.497c0-4.035 3.283-7.318 7.319-7.318s7.319 3.283 7.319 7.318v36.497c0 4.036-3.283 7.319-7.319 7.319zm29.638 0c-4.035 0-7.318-3.283-7.318-7.319v-36.497c0-4.035 3.283-7.318 7.318-7.318 4.036 0 7.319 3.283 7.319 7.318v36.497c0 4.036-3.283 7.319-7.319 7.319z" fill="#000000" data-original="#000000" style="" class=""/><path d="m368.946 436.73c.545.093.943.161 7.394.161 3.149 0 7.742-.016 14.5-.054 4.142-.023 7.481-3.399 7.458-7.542-.023-4.128-3.376-7.458-7.499-7.458-.015 0-.028 0-.043 0-3.989.022-9.008.042-13.042.048v-51.281c0-4.143-3.357-7.5-7.5-7.5s-7.5 3.357-7.5 7.5v58.733c0 3.654 2.632 6.776 6.232 7.393z" fill="#000000" data-original="#000000" style="" class=""/><path d="m161.923 438.163c4.143 0 7.5-3.357 7.5-7.5v-58.783c0-4.143-3.357-7.5-7.5-7.5s-7.5 3.357-7.5 7.5v20.883h-25.679v-20.883c0-4.143-3.357-7.5-7.5-7.5s-7.5 3.357-7.5 7.5v58.782c0 4.143 3.357 7.5 7.5 7.5s7.5-3.357 7.5-7.5v-22.899h25.679v22.899c0 4.143 3.357 7.501 7.5 7.501z" fill="#000000" data-original="#000000" style="" class=""/><path d="m340.57 378.372c4.143 0 7.5-3.357 7.5-7.5s-3.357-7.5-7.5-7.5h-24.543c-4.143 0-7.5 3.357-7.5 7.5v58.247c0 4.143 3.357 7.5 7.5 7.5h24.543c4.143 0 7.5-3.357 7.5-7.5s-3.357-7.5-7.5-7.5h-17.043v-14.123h15.233c4.143 0 7.5-3.357 7.5-7.5s-3.357-7.5-7.5-7.5h-15.233v-14.124z" fill="#000000" data-original="#000000" style="" class=""/><path d="m277.042 437.155c4.143 0 7.5-3.357 7.5-7.5v-51.283h8.797c4.143 0 7.5-3.357 7.5-7.5s-3.357-7.5-7.5-7.5h-32.463c-4.143 0-7.5 3.357-7.5 7.5s3.357 7.5 7.5 7.5h8.666v51.283c0 4.142 3.357 7.5 7.5 7.5z" fill="#000000" data-original="#000000" style="" class=""/><path d="m215.726 438.163c20.342 0 36.892-16.549 36.892-36.891s-16.55-36.892-36.892-36.892-36.892 16.55-36.892 36.892 16.55 36.891 36.892 36.891zm0-58.783c12.071 0 21.892 9.82 21.892 21.892 0 12.07-9.82 21.891-21.892 21.891s-21.892-9.82-21.892-21.891 9.82-21.892 21.892-21.892z" fill="#000000" data-original="#000000" style="" class=""/><path d="m431.051 401.272c0 12.594 10.246 22.84 22.841 22.84 12.594 0 22.84-10.246 22.84-22.84 0-12.595-10.246-22.841-22.84-22.841-12.595 0-22.841 10.246-22.841 22.841zm30.68 0c0 4.323-3.517 7.84-7.84 7.84s-7.841-3.517-7.841-7.84 3.518-7.841 7.841-7.841 7.84 3.518 7.84 7.841z" fill="#000000" data-original="#000000" style="" class=""/><path d="m36.386 401.272c0 12.594 10.246 22.84 22.84 22.84 12.595 0 22.841-10.246 22.841-22.84 0-12.595-10.246-22.841-22.841-22.841-12.594 0-22.84 10.246-22.84 22.841zm30.68 0c0 4.323-3.518 7.84-7.841 7.84s-7.84-3.517-7.84-7.84 3.517-7.841 7.84-7.841 7.841 3.518 7.841 7.841z" fill="#000000" data-original="#000000" style="" class=""/><path d="m264.853 295.882c3.315 1.743 7.257 1.46 10.288-.74 3.031-2.201 4.521-5.862 3.889-9.558l-1.68-9.794 7.113-6.935c2.685-2.614 3.633-6.451 2.476-10.015s-4.18-6.112-7.888-6.651l-9.834-1.429-4.396-8.908c-1.657-3.361-5.015-5.449-8.762-5.449s-7.104 2.088-8.761 5.446l-4.397 8.911-9.835 1.429c-3.707.539-6.729 3.088-7.887 6.651s-.209 7.4 2.473 10.012l7.116 6.938-1.681 9.796c-.632 3.693.858 7.354 3.89 9.556 1.713 1.243 3.715 1.874 5.73 1.874 1.553 0 3.114-.375 4.556-1.133l8.796-4.624zm-13.341-19.179-1.849.973.352-2.053c.547-3.173-.503-6.407-2.808-8.653l-1.496-1.459 2.066-.301c3.186-.463 5.937-2.462 7.356-5.344l.925-1.874.923 1.869c1.422 2.887 4.173 4.886 7.358 5.349l2.067.301-1.496 1.458c-2.306 2.247-3.355 5.481-2.81 8.647l.353 2.059-1.853-.974c-2.843-1.493-6.24-1.493-9.088.002z" fill="#000000" data-original="#000000" style="" class=""/><path d="m366.812 258.839c-1.157-3.562-4.18-6.11-7.887-6.649l-9.834-1.429-4.397-8.911c-1.658-3.359-5.016-5.446-8.761-5.446-3.746 0-7.104 2.087-8.762 5.446l-4.397 8.911-9.835 1.429c-3.706.539-6.729 3.087-7.886 6.649s-.21 7.4 2.472 10.014l7.116 6.938-1.679 9.793c-.634 3.692.855 7.354 3.887 9.557 1.713 1.244 3.716 1.876 5.732 1.876 1.553 0 3.114-.375 4.556-1.133l8.795-4.624 8.794 4.623c3.316 1.744 7.259 1.461 10.29-.742 3.031-2.202 4.521-5.864 3.887-9.556l-1.679-9.794 7.115-6.937c2.682-2.614 3.63-6.452 2.473-10.015zm-22.027 8.129c-2.303 2.243-3.354 5.476-2.811 8.647l.353 2.059-1.849-.971c-2.846-1.498-6.247-1.497-9.093-.001l-1.849.972.354-2.062c.542-3.169-.509-6.401-2.811-8.644l-1.496-1.459 2.067-.301c3.182-.462 5.931-2.459 7.356-5.344l.924-1.873.927 1.876c1.424 2.882 4.173 4.879 7.354 5.341l2.067.301z" fill="#000000" data-original="#000000" style="" class=""/><path d="m185.979 295.882c3.316 1.744 7.259 1.461 10.29-.742 3.031-2.202 4.521-5.864 3.887-9.556l-1.679-9.794 7.115-6.937c2.683-2.614 3.63-6.452 2.473-10.015s-4.18-6.11-7.887-6.649l-9.834-1.429-4.397-8.911c-1.658-3.359-5.016-5.446-8.762-5.446-3.745 0-7.103 2.087-8.761 5.446l-4.397 8.911-9.835 1.429c-3.706.539-6.729 3.087-7.886 6.649s-.21 7.4 2.472 10.014l7.116 6.938-1.679 9.793c-.634 3.692.855 7.354 3.887 9.557 1.713 1.244 3.716 1.876 5.732 1.876 1.553 0 3.114-.375 4.556-1.133l8.795-4.624zm-15.189-18.208.354-2.062c.542-3.169-.509-6.401-2.811-8.644l-1.496-1.459 2.067-.301c3.182-.462 5.931-2.459 7.356-5.344l.925-1.873.926 1.876c1.424 2.882 4.173 4.879 7.354 5.341l2.067.301-1.495 1.458c-2.303 2.243-3.354 5.476-2.811 8.647l.353 2.059-1.849-.971c-2.846-1.498-6.247-1.497-9.093-.001z" fill="#000000" data-original="#000000" style="" class=""/></g></g></g></svg>
