<svg fill="#fff" id="Capa_1" enable-background="new 0 0 512.018 512.018" height="512" viewBox="0 0 512.018 512.018" width="512" xmlns="http://www.w3.org/2000/svg"><g><path d="m292.745 316.463-31.209 31.21c-5.527 5.527-8.305 12.841-8.305 20.155 0 7.313 2.778 14.599 8.305 20.154 5.557 5.556 12.869 8.334 20.154 8.334 7.315 0 14.598-2.778 20.155-8.334l31.209-31.21zm-132.293 73.391c0-4.167 3.345-7.512 7.483-7.512 4.139 0 7.512 3.345 7.512 7.512v23.103c0 4.138-3.374 7.483-7.512 7.483s-7.483-3.346-7.483-7.483zm24.548-347.532h-134.704v29.878h125.463c1.134-10.715 4.337-20.807 9.241-29.878zm-120.899 44.873h-21.288c-4.139 0-7.512-3.345-7.512-7.483v-44.902c0-4.139 3.373-7.483 7.512-7.483h152.676c1.106-1.275 2.268-2.494 3.459-3.685 14.597-14.599 34.78-23.642 57.061-23.642 22.279 0 42.434 9.043 57.034 23.642 1.219 1.19 2.352 2.409 3.486 3.685h152.675c4.14 0 7.513 3.345 7.513 7.483v44.902c0 4.139-3.373 7.483-7.513 7.483h-21.287v298.86c0 4.139-3.346 7.512-7.484 7.512-4.166 0-7.512-3.373-7.512-7.512v-206.45c-6.435 4.933-14.514 7.909-23.244 7.909-10.516 0-20.068-4.309-27.015-11.226-1.332-1.36-2.58-2.807-3.715-4.337-1.133 1.53-2.381 2.977-3.713 4.337-6.945 6.917-16.498 11.226-27.014 11.226s-20.098-4.309-27.014-11.226c-1.361-1.36-2.609-2.807-3.742-4.337-1.135 1.53-2.381 2.977-3.713 4.337-6.918 6.917-16.499 11.226-27.017 11.226-8.135 0-15.703-2.608-21.94-7.002-3.373-2.352-6.35-5.272-8.787-8.589-1.928 2.579-4.139 4.933-6.633 6.944-6.605 5.387-14.996 8.646-24.095 8.646-10.545 0-20.098-4.309-27.014-11.226-1.361-1.36-2.608-2.807-3.742-4.337-1.134 1.53-2.381 2.977-3.714 4.337-6.945 6.917-16.498 11.226-27.014 11.226-10.517 0-20.07-4.309-27.015-11.226-1.332-1.36-2.58-2.807-3.713-4.337-1.134 1.53-2.381 2.977-3.742 4.337-6.917 6.917-16.47 11.226-27.015 11.226-8.702 0-16.781-2.977-23.215-7.909v37.049c0 4.167-3.373 7.512-7.512 7.512-4.138 0-7.484-3.345-7.484-7.512v-129.458zm397.591-14.995v-29.878h-134.704c4.904 9.071 8.137 19.163 9.27 29.878zm-125.264 14.995c-1.02 12.897-5.072 24.917-11.451 35.377v26.703c0 6.378 2.607 12.189 6.832 16.413 4.223 4.195 10.033 6.831 16.412 6.831 6.377 0 12.19-2.636 16.385-6.831 4.223-4.224 6.83-10.035 6.83-16.413v-62.08zm-26.447 53.462c-11.849 10.659-26.872 17.887-43.483 20.042 1.701 2.977 4.082 5.585 6.916 7.568 3.77 2.665 8.363 4.252 13.322 4.252 6.379 0 12.189-2.636 16.415-6.831 4.223-4.224 6.83-10.035 6.83-16.413zm-64.46 20.041c-16.611-2.183-31.635-9.383-43.484-20.042v8.618c0 6.378 2.608 12.189 6.832 16.413 4.224 4.195 10.006 6.831 16.413 6.831 5.556 0 10.659-1.983 14.655-5.244 2.239-1.841 4.138-4.052 5.584-6.576zm-58.48-38.126c-6.378-10.46-10.431-22.479-11.452-35.377h-35.037v62.079c0 6.378 2.636 12.189 6.831 16.413 4.224 4.195 10.035 6.831 16.413 6.831s12.189-2.636 16.413-6.831c4.195-4.224 6.831-10.035 6.831-16.413v-26.702zm115.4-88.328c-11.878-11.877-28.29-19.248-46.433-19.248-18.142 0-34.555 7.371-46.46 19.248-11.877 11.877-19.219 28.29-19.219 46.432s7.342 34.554 19.219 46.46c11.906 11.877 28.318 19.219 46.46 19.219 18.143 0 34.555-7.342 46.433-19.219 11.904-11.906 19.246-28.319 19.246-46.46.001-18.142-7.341-34.555-19.246-46.432zm130.48 52.951h-46.459v62.079c0 6.378 2.607 12.189 6.83 16.413 4.195 4.195 10.006 6.831 16.385 6.831s12.189-2.636 16.412-6.831c4.225-4.224 6.832-10.035 6.832-16.413zm-307.364 62.079v-62.079h-46.46v62.079c0 6.378 2.608 12.189 6.831 16.413 4.195 4.195 10.006 6.831 16.384 6.831 6.407 0 12.19-2.636 16.414-6.831 4.223-4.223 6.831-10.035 6.831-16.413zm307.364 322.389h-229.439v25.342h229.438v-25.342zm-368.82 32.854c0-84.644 0-169.259 0-253.874 0-4.139 3.346-7.512 7.484-7.512 4.139 0 7.512 3.373 7.512 7.512v40.139h116.902c4.139 0 7.483 3.345 7.483 7.483v158.402h229.438v-36.624c0-4.167 3.346-7.512 7.512-7.512 4.139 0 7.484 3.345 7.484 7.512v84.474c.025.366.193 3.613-2.392 5.837-2.113 1.818-4.593 1.684-5.093 1.647h-244.432-124.414c-.506.002-3.125-.039-5.258-2.136-2.192-2.155-2.228-4.864-2.226-5.348zm124.386-198.74h-109.39v191.228h109.39zm59.641-276.268h15.732c4.478 0 8.56 1.814 11.48 4.763 2.947 2.948 4.762 7.001 4.762 11.48v10.828h10.828c4.48 0 8.561 1.814 11.481 4.762 2.949 2.949 4.764 7.002 4.764 11.481v15.733c0 4.479-1.815 8.532-4.764 11.48-2.921 2.92-7.001 4.762-11.481 4.762h-10.828v10.83c0 4.479-1.814 8.532-4.762 11.48-2.92 2.947-7.002 4.762-11.48 4.762h-15.732c-4.45 0-8.532-1.843-11.48-4.762-2.92-2.948-4.763-7.002-4.763-11.48v-10.83h-10.828c-4.479 0-8.532-1.842-11.48-4.762-2.92-2.948-4.762-7.002-4.762-11.48v-15.733c0-4.478 1.843-8.532 4.762-11.481 2.948-2.947 7.001-4.762 11.48-4.762h10.828v-10.828c0-4.479 1.843-8.532 4.763-11.48 2.948-2.948 7.002-4.763 11.48-4.763zm15.732 14.996h-15.732c-.652 0-1.219.566-1.219 1.247v18.312c0 4.167-3.374 7.512-7.512 7.512h-18.341c-.652 0-1.247.567-1.247 1.247v15.733c0 .652.596 1.247 1.247 1.247h18.341c4.138 0 7.512 3.345 7.512 7.483v18.341c0 .651.567 1.247 1.219 1.247h15.732c.68 0 1.248-.596 1.248-1.247v-18.341c0-4.139 3.373-7.483 7.512-7.483h18.311c.682 0 1.248-.595 1.248-1.247v-15.733c0-.68-.566-1.247-1.248-1.247h-18.311c-4.139 0-7.512-3.345-7.512-7.512v-18.312c0-.68-.568-1.247-1.248-1.247zm36.88 242.762c2.92-2.948 7.682-2.948 10.602 0 2.92 2.92 2.92 7.653 0 10.602l-7.994 7.965 40.309 40.337 31.211-31.21c5.555-5.556 8.306-12.841 8.306-20.154s-2.751-14.627-8.306-20.155c-5.443-5.442-12.559-8.221-19.701-8.334-7.172-.113-14.4 2.438-19.957 7.682-3.033 2.835-7.766 2.693-10.572-.311-2.836-3.033-2.693-7.767.311-10.602 8.506-7.994 19.504-11.877 30.473-11.707 10.914.17 21.799 4.394 30.077 12.643 8.447 8.475 12.699 19.616 12.699 30.785 0 11.14-4.252 22.28-12.699 30.756l-73.021 73.021c-8.447 8.448-19.618 12.671-30.786 12.671s-22.309-4.224-30.756-12.671c-8.476-8.476-12.699-19.616-12.699-30.756 0-11.169 4.224-22.309 12.699-30.785z"/></g></svg>