<svg id="Capa_1" enable-background="new 0 0 511.726 511.726" height="512" viewBox="0 0 511.726 511.726" width="512" xmlns="http://www.w3.org/2000/svg"><g><path d="m474.729 22.399h-19.954c-4.143 0-7.5 3.357-7.5 7.5s3.357 7.5 7.5 7.5h19.954c12.129 0 21.997 9.868 21.997 21.997v169.782c0 12.13-9.868 21.998-21.997 21.998h-174.938c-8.341 0-15.861-4.623-19.627-12.065l-42.959-84.892c-3.147-6.219-3.147-13.645 0-19.864l27.834-55.002c8.11 6.217 15.117 13.806 20.66 22.423-11.665 11.038-18.253 26.187-18.253 42.512 0 32.353 26.321 58.674 58.675 58.674 32.353 0 58.674-26.321 58.674-58.674 0-31.584-25.09-57.407-56.384-58.616-9.745-17.844-23.471-33.28-40.049-45.044 3.411-2.074 7.365-3.229 11.429-3.229h123.021c4.143 0 7.5-3.357 7.5-7.5s-3.357-7.5-7.5-7.5h-123.021c-9.288 0-18.235 3.579-25 9.772-14.062-7.621-29.686-12.795-46.342-14.91-4.098-.524-7.862 2.386-8.385 6.496-.521 4.108 2.387 7.863 6.496 8.385 58.777 7.462 103.102 57.844 103.102 117.192 0 13.236-2.168 26.168-6.431 38.521-5.187-.341-10.127-1.589-14.667-3.591 4.043-11.181 6.098-22.904 6.098-34.931 0-56.871-46.268-103.139-103.139-103.139s-103.139 46.268-103.139 103.139c0 15.06 3.342 29.973 9.679 43.549-4.391 2.395-9.319 3.92-14.551 4.365-6.716-15.086-10.128-31.179-10.128-47.914 0-59.349 44.324-109.73 103.102-117.192 4.109-.521 7.018-4.276 6.496-8.385-.522-4.11-4.287-7.01-8.385-6.496-40.122 5.094-74.264 27.93-94.958 60.002-26.281.153-50.988 10.384-69.752 28.888-19.273 19.008-29.887 44.382-29.887 71.447 0 39.002 22.592 74.389 57.776 90.882v27.881c0 4.143 3.357 7.5 7.5 7.5s7.5-3.357 7.5-7.5v-30.5c0-4.348-2.59-8.289-6.597-10.04-31.089-13.598-51.179-44.302-51.179-78.223 0-23.02 9.027-44.6 25.42-60.765 13.865-13.674 31.543-22.015 50.61-24.057-2.714 5.763-5.027 11.744-6.902 17.905-21.364 6.929-35.929 26.719-35.929 49.573 0 28.75 23.39 52.14 52.139 52.14 28.75 0 52.14-23.39 52.14-52.14 0-17.576-8.656-33.597-22.964-43.221 2.233-5.648 5.038-11.01 8.335-16.02 13.231 6.524 24.557 16.343 32.984 28.673 9.765 14.287 14.897 30.948 14.845 48.181-.104 33.803-20.194 64.401-51.176 77.951-4.01 1.75-6.601 5.691-6.601 10.041v51.006l-10.648 15.619c-3.601 5.282-3.494 12.306.266 17.479l11.383 15.65v13.328l-11.384 15.652c-3.759 5.171-3.865 12.194-.265 17.478l10.648 15.618v21.652l-26.586 28.422v-173.056c0-4.143-3.357-7.5-7.5-7.5s-7.5 3.357-7.5 7.5v159.109l-13.039-13.94c-.321-.344-.499-.794-.499-1.266v-120.286c0-4.143-3.357-7.5-7.5-7.5s-7.5 3.357-7.5 7.5v120.287c0 4.29 1.613 8.378 4.544 11.512l28.193 30.141c2.534 2.71 6.115 4.264 9.825 4.264 3.709 0 7.29-1.554 9.824-4.264l30.715-32.837c1.3-1.389 2.022-3.221 2.022-5.123v-26.927c0-1.507-.454-2.979-1.303-4.225l-11.951-17.529c-.043-.062-.042-.147.002-.208l11.656-16.025c1.698-2.337 2.596-5.099 2.596-7.987v-14.247c0-2.887-.897-5.648-2.598-7.99l-11.653-16.021c-.045-.062-.046-.146-.003-.21l11.951-17.529c.849-1.245 1.303-2.718 1.303-4.225v-50.699c1.583-.742 3.13-1.535 4.661-2.353 19.525 10.707 41.543 16.347 63.961 16.347 25.308 0 49.777-7.095 71.026-20.528 5.205 2.735 11.091 4.231 17.243 4.231h174.938c20.4 0 36.997-16.598 36.997-36.998v-169.784c0-20.401-16.597-36.997-36.997-36.997zm-104.934 121.888c0 19.385-12.699 35.852-30.212 41.541 3.365-11.811 5.078-24.034 5.078-36.494 0-16.699-3.115-32.768-8.82-47.611 19.417 4.43 33.954 21.824 33.954 42.564zm-74.147 31.245c-8.136-7.937-13.202-19.008-13.202-31.245 0-10.666 3.778-20.659 10.575-28.501 4.275 10.346 6.64 21.675 6.64 33.547 0 8.983-1.367 17.757-4.013 26.199zm-232.449-15.279c0-12.875 6.487-24.38 16.724-31.072-1.008 6.586-1.539 13.315-1.539 20.153 0 15.674 2.67 30.848 7.918 45.296-13.539-5.549-23.103-18.864-23.103-34.377zm74.279 0c0 8.403-2.809 16.161-7.533 22.391-4.303-10.526-6.561-21.867-6.561-33.311 0-5.761.562-11.393 1.623-16.849 7.845 6.943 12.471 16.937 12.471 27.769zm45.738-39.031c-9.283-13.584-21.579-24.561-35.908-32.194 16.088-17.121 38.922-27.833 64.214-27.833 14.719 0 28.603 3.632 40.813 10.038l-28.515 56.349c-5.293 10.46-5.293 22.95 0 33.41l32.499 64.221c-13.545 8.037-28.902 12.26-44.796 12.26-9.487 0-18.722-1.508-27.576-4.44 10.627-16.031 16.669-35.093 16.73-55.119.062-20.283-5.976-39.886-17.461-56.692zm-21.105 135.436c4.35-3.403 8.4-7.134 12.102-11.165 11.88 4.633 24.404 6.98 37.309 6.98 18.27 0 35.933-4.773 51.579-13.856l3.677 7.267c1.057 2.089 2.305 4.033 3.692 5.844-17.875 10.317-38.089 15.745-58.948 15.745-17.134 0-33.997-3.719-49.411-10.815z"/><path d="m403.274 84.758v121.604c0 4.143 3.357 7.5 7.5 7.5s7.5-3.357 7.5-7.5v-121.604c0-4.143-3.357-7.5-7.5-7.5s-7.5 3.358-7.5 7.5z"/><path d="m454.774 213.863c4.143 0 7.5-3.357 7.5-7.5v-121.605c0-4.143-3.357-7.5-7.5-7.5s-7.5 3.357-7.5 7.5v121.604c0 4.143 3.358 7.501 7.5 7.501z"/></g></svg>